<svg
  xmlns="http://www.w3.org/2000/svg"
  xmlns:xlink="http://www.w3.org/1999/xlink"
  viewBox="0 0 1378.21 403.21"
>
  <defs>
    <style>
      .cls-1 {
        fill: #fff;
      }
      .cls-2 {
        fill: #09c;
      }
      .cls-3 {
        fill: #fff;
        clip-path: url(#clip-path);
      }
    </style>
    <clipPath id="clip-path">
      <rect class="cls-1" x="375.68" y="255.04" width="977.73" height="81" />
    </clipPath>
  </defs>
  <g id="Camada_1" data-name="Camada 1">
    <path
      class="cls-2"
      d="M208.67,192.76a7.48,7.48,0,0,0,6.22-.19c9.59-5.54,19-11.43,28.39-17.25A26.67,26.67,0,0,0,246,173L25.67,46.5c-.14,1.88-.27,2.84-.27,3.8q0,150.84-.08,301.67c0,3,1.06,4.47,3.65,5.72,13.91,6.7,27.73,13.57,41.6,20.35,1,.48,2.09.76,3.89,1.39V119.06c3.18,1.64,5.54,2.78,7.82,4Q145.45,158,208.67,192.76Z"
    />
    <path
      class="cls-2"
      d="M339.81,198.94V176.46L127.89,301.53v-7.6c0-45.56,0-91.12.12-136.68,0-3.95-1.26-6-4.67-7.81-8.78-4.56-17.37-9.48-26-14.25l-19.45-10.7V379.25c2.26-1.2,3.73-1.91,5.13-2.74q46.59-27.45,93.18-54.92,80-47.1,160-94.12c2.86-1.67,3.81-3.62,3.7-6.85C339.65,213.4,339.81,206.17,339.81,198.94Z"
    />
    <path
      class="cls-2"
      d="M249,175.68q-16.25,10-32.54,20c-27.1,16.48-54.24,32.88-81.29,49.44-1.6,1-3.58,3-3.61,4.62-.28,14.94-.16,29.88-.16,45.83L337.79,173.38c-2.26-1.39-3.66-2.29-5.09-3.14Q206.3,95.65,79.93,21c-2.61-1.55-4.65-1.71-7.38-.32-13.62,6.91-27.34,13.61-41,20.41-1.3.64-2.52,1.45-4.35,2.51l225.3,129.34A40,40,0,0,1,249,175.68Z"
    />
    <path
      class="cls-1"
      d="M562.2,147.45c-10.41-9.71-23.12-15-36.36-19-21.8-6.67-43.79-12.7-65.63-19.23A31.76,31.76,0,0,1,450,104.11c-6.15-4.73-8.69-11.31-7.13-19,1.52-7.43,6.65-11.74,13.71-13.69A34.75,34.75,0,0,1,466,70.31q52.32.41,104.63,1c2.28,0,4.57,0,7.09,0V47.54h-4.53c-51.73,0-103.47.2-155.21.06-13,0-23.37,4.66-31,15-7.29,9.84-12.52,21-11,33.21,1.66,13.47,8.79,24.92,19.65,33.59,12.27,9.8,26.95,14,41.82,17.92,16.7,4.39,33.4,8.87,49.87,14a38.12,38.12,0,0,1,19.4,13.56c3.41,4.59,5.3,9.55,3.06,15.34-2.84,7.36-12.28,13.95-20.19,14l-106.14.13h-5.58v22.11c1.65.09,3.11.24,4.57.24q78.62-.27,157.21-.61a26.61,26.61,0,0,0,8.28-1.46C581,213.23,588.59,172.05,562.2,147.45Z"
    />
    <path
      class="cls-1"
      d="M973.11,132c-.26-23.35-16.75-39.95-40.11-40q-66.11-.19-132.21-.15c-1.74,0-3.49.22-5.2.33V115.3c1.67.1,3.13.26,4.59.28l88.12.86c9,.08,17.8,10.22,16.73,19.54-1.44.08-2.92.22-4.4.24-22.53.26-45.06.47-67.59.78-8.33.12-16.88-.68-24.93.94-21.37,4.28-33.68,19.83-34.42,42.23-.41,12.38,1.52,24.31,10.16,34s20.06,12.51,32.49,12.46c41.23-.15,82.46-.93,123.68-.25,16.12.26,34.69-18.82,34-34.1C973.08,172.23,973.33,152.1,973.11,132Zm-64.59,53.28c-.37,9.24-10,18.07-19.11,18.08H861.92c-12.07,0-19.81-7.53-21.18-20.54-1.21-11.5,6.07-22.44,17.33-23.57,11.54-1.15,23.27-.5,34.91-.6,5-.05,9.94,0,15.61,0C908.59,168.05,908.87,176.68,908.52,185.28Z"
    />
    <path
      class="cls-1"
      d="M1348.56,203.28q-29.79,0-59.58.07c-13,0-21.37-5.89-22.82-18.82-1.68-14.94-1.4-30.11-1.79-45.18-.21-7.9,0-15.8,0-24.09h67.38V91.9h-67.23V48.76h-65.92c0,2.08,0,3.87,0,5.66,0,44,1.06,88.08-.31,132.07-.57,18.61,20.21,38.49,35.59,39.49,6.16.4,12.32,1,18.48,1,27.86.07,55.73-.05,83.6-.09h18.24V203.28Z"
    />
    <path
      class="cls-1"
      d="M753.22,203.19c-22,.28-44.06.2-66.09.15-9.72,0-15.59-4.57-17.7-13.61a40.26,40.26,0,0,1-1.11-8.87c0-19.77.19-39.55,0-59.32,0-4.18,1.55-5,5.25-5,19.18-.2,38.37-.59,57.56-.94,1.75,0,3.51-.18,5.19-.28V94c-1.71-.1-3-.25-4.34-.26-17.85-.16-35.71-.34-53.56-.45-9.58,0-9.58,0-9.79-9.3,0-2.16-.13-4.32-.13-6.48,0-9.92,0-19.84,0-29.71H602.91c0,2.25,0,4,0,5.83q.5,67.53,1,135.07c.17,23.62,14,37.39,37.7,37.39H759.18c0-6.18-.29-11.5.09-16.78C759.61,204.59,758.11,203.13,753.22,203.19Z"
    />
    <path
      class="cls-1"
      d="M1173.89,90.82q-59.09.24-118.17.53a202.73,202.73,0,0,0-20.49.82c-21.4,2.28-32.56,14.81-32.54,36.15q0,46.11.12,92.23c0,1.75,0,3.51,0,5.87h65.63c.07-1.24.17-2.22.16-3.21q-.21-40.62-.44-81.26c0-3.65-.13-7.32.15-10.95.77-9.86,6.72-15.43,16.61-15.59,8-.14,16-.09,24-.07a23.4,23.4,0,0,1,3.46.53v22.6h66.64V90.82Z"
    />
  </g>
  <g id="Camada_2" data-name="Camada 2">
    <rect class="cls-1" x="-1199.7" y="533.98" width="977.73" height="81" />
  </g>
  <g id="Camada_2_cópia" data-name="Camada 2 cópia">
    <rect class="cls-1" x="375.68" y="255.04" width="977.73" height="81" />
    <g class="cls-3">
      <rect class="cls-2" x="375.68" y="255.04" width="755" height="81" />
      <path
        class="cls-2"
        d="M1178.68,312q0,10-12.5,10h-12.5V302h12.5Q1178.68,302,1178.68,312Z"
      />
      <path
        class="cls-2"
        d="M1166.18,288h-12.5V268h12.5q12.49,0,12.5,10T1166.18,288Z"
      />
      <path
        class="cls-2"
        d="M1253.89,312q0,10-12.5,10h-34.71v14H1177.1q23.91,0,23.9-23.62,0-11.66-5.23-16.89,5.24-5.22,5.23-16.87,0-23.62-23.9-23.62h53.41q-23.79,0-23.78,23.5t23.78,23.5h10.88Q1253.9,302,1253.89,312Z"
      />
      <path
        class="cls-2"
        d="M1276.68,255h6v81h-28.84q24.27,0,24.28-24t-24.28-24H1242q-12.49,0-12.49-10T1242,268h34.72Z"
      />
      <path
        class="cls-2"
        d="M1329.67,312q0,10-12.5,10h-12.49V302h12.49Q1329.67,302,1329.67,312Z"
      />
      <path
        class="cls-2"
        d="M1317.17,288h-12.49V268h12.49q12.49,0,12.5,10T1317.17,288Z"
      />
      <path
        class="cls-2"
        d="M1353.68,255v81H1329.1q23.91,0,23.91-23.62,0-11.66-5.24-16.89,5.24-5.22,5.24-16.87Q1353,255,1329.1,255Z"
      />
    </g>
  </g>
</svg>
